<?xml version="1.0" encoding="UTF-8" standalone="no"?>
<svg
   xmlns:dc="http://purl.org/dc/elements/1.1/"
   xmlns:cc="http://creativecommons.org/ns#"
   xmlns:rdf="http://www.w3.org/1999/02/22-rdf-syntax-ns#"
   xmlns:svg="http://www.w3.org/2000/svg"
   xmlns="http://www.w3.org/2000/svg"
   xmlns:xlink="http://www.w3.org/1999/xlink"
   xmlns:sodipodi="http://sodipodi.sourceforge.net/DTD/sodipodi-0.dtd"
   xmlns:inkscape="http://www.inkscape.org/namespaces/inkscape"
   width="666.99957mm"
   height="144.30882mm"
   viewBox="0 0 666.99957 144.30882"
   version="1.1"
   id="SVGRoot"
   sodipodi:docname="logo2.svg"
   inkscape:version="1.0.1 (3bc2e813f5, 2020-09-07)">
  <defs
     id="defs1413">
    <inkscape:path-effect
       effect="skeletal"
       id="path-effect2062"
       is_visible="true"
       lpeversion="1"
       pattern="m -85.190888,-28.261905 c 0,-2.76 3.371253,-5 7.525113,-5 4.15386,0 7.525113,2.24 7.525113,5 0,2.76 -3.371253,5 -7.525113,5 -4.15386,0 -7.525113,-2.24 -7.525113,-5 z"
       copytype="single_stretched"
       prop_scale="1"
       scale_y_rel="false"
       spacing="0"
       normal_offset="0"
       tang_offset="0"
       prop_units="false"
       vertical_pattern="false"
       hide_knot="false"
       fuse_tolerance="0" />
    <inkscape:path-effect
       effect="simplify"
       id="path-effect2060"
       is_visible="true"
       lpeversion="1"
       steps="1"
       threshold="0.0183333"
       smooth_angles="360"
       helper_size="0"
       simplify_individual_paths="false"
       simplify_just_coalesce="false" />
    <inkscape:path-effect
       effect="skeletal"
       id="path-effect2056"
       is_visible="true"
       lpeversion="1"
       pattern="M 0,5 C 0,2.24 2.24,0 5,0 7.76,0 10,2.24 10,5 10,7.76 7.76,10 5,10 2.24,10 0,7.76 0,5 Z"
       copytype="single_stretched"
       prop_scale="1"
       scale_y_rel="false"
       spacing="0"
       normal_offset="0"
       tang_offset="0"
       prop_units="false"
       vertical_pattern="false"
       hide_knot="false"
       fuse_tolerance="0" />
    <inkscape:path-effect
       effect="simplify"
       id="path-effect2054"
       is_visible="true"
       lpeversion="1"
       steps="1"
       threshold="0.0183333"
       smooth_angles="360"
       helper_size="0"
       simplify_individual_paths="false"
       simplify_just_coalesce="false" />
    <inkscape:path-effect
       effect="skeletal"
       id="path-effect2050"
       is_visible="true"
       lpeversion="1"
       pattern="M 0,5 C 0,2.24 2.24,0 5,0 7.76,0 10,2.24 10,5 10,7.76 7.76,10 5,10 2.24,10 0,7.76 0,5 Z"
       copytype="single_stretched"
       prop_scale="1"
       scale_y_rel="false"
       spacing="0"
       normal_offset="0"
       tang_offset="0"
       prop_units="false"
       vertical_pattern="false"
       hide_knot="false"
       fuse_tolerance="0" />
    <inkscape:path-effect
       effect="simplify"
       id="path-effect2048"
       is_visible="true"
       lpeversion="1"
       steps="1"
       threshold="0.0183333"
       smooth_angles="360"
       helper_size="0"
       simplify_individual_paths="false"
       simplify_just_coalesce="false" />
    <inkscape:path-effect
       effect="skeletal"
       id="path-effect2044"
       is_visible="true"
       lpeversion="1"
       pattern="M 0,5 C 0,2.24 2.24,0 5,0 7.76,0 10,2.24 10,5 10,7.76 7.76,10 5,10 2.24,10 0,7.76 0,5 Z"
       copytype="single_stretched"
       prop_scale="1"
       scale_y_rel="false"
       spacing="0"
       normal_offset="0"
       tang_offset="0"
       prop_units="false"
       vertical_pattern="false"
       hide_knot="false"
       fuse_tolerance="0" />
    <inkscape:path-effect
       effect="simplify"
       id="path-effect2042"
       is_visible="true"
       lpeversion="1"
       steps="1"
       threshold="0.0183333"
       smooth_angles="360"
       helper_size="0"
       simplify_individual_paths="false"
       simplify_just_coalesce="false" />
    <inkscape:path-effect
       effect="simplify"
       id="path-effect2038"
       is_visible="true"
       lpeversion="1"
       steps="1"
       threshold="0.0183333"
       smooth_angles="360"
       helper_size="0"
       simplify_individual_paths="false"
       simplify_just_coalesce="false" />
  </defs>
  <sodipodi:namedview
     id="base"
     pagecolor="#ffffff"
     bordercolor="#666666"
     borderopacity="1.0"
     inkscape:pageopacity="0.0"
     inkscape:pageshadow="2"
     inkscape:zoom="0.35"
     inkscape:cx="1338.0202"
     inkscape:cy="214.26616"
     inkscape:document-units="mm"
     inkscape:current-layer="layer1"
     inkscape:document-rotation="0"
     showgrid="false"
     inkscape:window-width="1920"
     inkscape:window-height="1017"
     inkscape:window-x="-8"
     inkscape:window-y="-8"
     inkscape:window-maximized="1"
     fit-margin-top="0"
     fit-margin-left="0"
     fit-margin-right="0"
     fit-margin-bottom="0"
     inkscape:pagecheckerboard="true" />
  <metadata
     id="metadata1416">
    <rdf:RDF>
      <cc:Work
         rdf:about="">
        <dc:format>image/svg+xml</dc:format>
        <dc:type
           rdf:resource="http://purl.org/dc/dcmitype/StillImage" />
        <dc:title></dc:title>
      </cc:Work>
    </rdf:RDF>
  </metadata>
  <g
     inkscape:label="Warstwa 1"
     inkscape:groupmode="layer"
     id="layer1"
     transform="translate(-38.534668,-78.280121)">
    <text
       xml:space="preserve"
       style="font-style:normal;font-variant:normal;font-weight:normal;font-stretch:normal;font-size:44.6165px;line-height:1.45;font-family:Oswald;-inkscape-font-specification:Oswald;letter-spacing:0.00929511px;word-spacing:0.00464755px;fill:#000000;fill-opacity:1;stroke:none;stroke-width:0.464755"
       id="text2004"><textPath
         xlink:href="#path2058"
         id="textPath2068">roślinki</textPath></text>
    <path
       style="fill:#91bf6f;stroke:none;stroke-width:0.324589px;stroke-linecap:butt;stroke-linejoin:miter;stroke-opacity:1;fill-opacity:1"
       d="m 186.72545,183.69643 c -0.36932,-1.21329 23.05318,-10.95737 63.95348,-15.91732 18.95796,-2.2987 40.47146,-3.3423 65.42187,-2.57475 0,0 2e-5,0 2e-5,0 41.68497,1.28674 80.9655,6.83311 131.07821,14.11156 -0.002,-2.7e-4 0.24538,0.0356 0.24354,0.0354 50.06848,7.25 88.81314,12.56686 129.83744,13.583 24.46624,0.60993 45.45174,-0.52401 64.02414,-2.76648 40.2738,-4.86072 63.809,-13.7126 64.24401,-12.519 0.43502,1.19359 -22.49992,12.36548 -63.30772,19.0784 -18.76648,3.08629 -40.23572,4.93186 -65.08049,4.8568 -41.2637,-0.13099 -81.47883,-5.12044 -131.1527,-12.33627 -3.4e-4,-5e-5 -0.24348,-0.0353 -0.24382,-0.0353 -50.83388,-7.36493 -88.26715,-13.16835 -130.00267,-15.36392 0,0 -2e-5,0 -2e-5,0 -24.61762,-1.29777 -45.63852,-0.94627 -64.40536,0.51491 -40.35376,3.14102 -64.24061,10.54631 -64.60993,9.33302 z"
       id="path2058"
       inkscape:path-effect="#path-effect2060;#path-effect2062"
       inkscape:original-d="m 186.72545,183.69643 c 159.52879,-51.54153 364.76066,55.36356 518.8027,-6.04762" />
    <path
       style="fill:#008200;stroke-width:0.208701;fill-opacity:1"
       d="m 124.60421,199.03495 c 0.25208,-2.97913 0.97491,-7.96613 1.98375,-13.68637 1.51809,-8.60782 1.57258,-9.05916 1.45999,-12.09295 -0.15352,-4.13661 -0.9235,-6.02125 -2.94773,-7.21501 -1.37232,-0.80931 -2.86156,-0.94866 -5.0361,-0.47123 -3.63574,0.79824 -6.76527,2.6621 -8.51038,5.06856 -1.03412,1.42602 -2.14628,3.63662 -2.52134,5.01158 -0.74993,2.74923 -1.96067,0.19634 -2.42816,-5.11989 -0.39574,-4.50032 0.28486,-7.11058 2.15296,-8.25704 1.00602,-0.6174 3.1664,-0.64946 5.19376,-0.0771 l 1.39146,0.39285 1.07494,-0.74508 c 1.48453,-1.02897 5.15096,-2.79332 6.91064,-3.32552 0.80394,-0.24314 2.11581,-0.50332 2.91528,-0.57818 1.14721,-0.10742 1.45379,-0.20952 1.45453,-0.48441 6e-4,-0.19156 -0.28407,-2.02714 -0.63239,-4.07905 l -0.63332,-3.73075 -1.45458,-0.99842 c -0.91585,-0.62863 -2.06493,-1.72282 -3.10256,-2.95435 -3.46743,-4.11541 -7.82963,-6.79044 -12.59112,-7.72127 -2.38934,-0.46709 -8.72156,-0.6382 -12.162444,-0.32866 -5.581593,0.50213 -11.653203,1.68071 -19.163855,3.71996 -2.159432,0.58632 -4.091465,1.13473 -4.293406,1.2187 -0.253605,0.10544 -0.322328,0.074 -0.222196,-0.1015 0.08146,-0.14281 0.03403,-0.25416 -0.108261,-0.25416 -0.139277,0 0.409898,-0.443 1.220389,-0.98445 2.067318,-1.38106 2.802052,-2.02737 5.425014,-4.77208 5.513742,-5.76969 7.403922,-7.37017 11.042822,-9.35041 2.214793,-1.20526 3.586553,-1.70188 6.204143,-2.24609 4.059984,-0.84409 6.395074,-0.79496 9.939344,0.20913 6.04406,1.71227 11.01789,5.39495 12.8852,9.54036 1.09261,2.42557 1.63144,4.78881 1.63144,7.15532 v 1.87196 l 1.35334,1.42784 c 1.36657,1.44181 2.46031,2.36227 2.80695,2.36227 0.11033,0 0.0763,-0.64451 -0.082,-1.5515 -0.54264,-3.10954 -0.88468,-6.90795 -1.00723,-11.18544 l -0.12527,-4.37306 -1.12203,-0.50054 c -1.62645,-0.72558 -3.35943,-2.67528 -4.43154,-4.98574 -1.03715,-2.23511 -2.26209,-6.20747 -2.71824,-8.81495 -0.45672,-2.61076 -0.27759,-8.77879 0.36843,-12.68651 0.54658,-3.30618 0.73731,-3.455568 1.8885,-1.4792 0.43819,0.7523 1.73656,2.57848 2.88526,4.05818 2.68632,3.4604 3.76639,4.97634 4.50197,6.3188 0.3267,0.59623 0.6391,1.07976 0.69424,1.07451 0.0551,-0.005 0.44621,-0.46766 0.86905,-1.02759 1.81227,-2.39983 6.20115,-6.03104 9.39749,-7.77516 0.76365,-0.41669 2.85287,-1.37744 4.6427,-2.13499 4.00468,-1.695 5.5081,-2.495678 7.92848,-4.222528 1.03731,-0.74008 1.98465,-1.31044 2.1052,-1.26746 0.38905,0.13869 0.35265,2.3049 -0.0805,4.790248 -0.52098,2.98928 -2.3218,9.58492 -3.31992,12.15952 -2.29069,5.90865 -9.36038,13.96141 -13.85767,15.78463 -1.57593,0.63889 -4.61441,1.01805 -5.8898,0.73496 l -1.01776,-0.2259 -0.39286,0.8344 c -1.1103,2.35817 -1.20358,4.7632 -0.36697,9.46179 0.35371,1.98657 2.35015,11.15707 3.00734,13.81406 l 0.20439,0.82632 0.58155,-1.26081 c 0.31986,-0.69344 1.02348,-1.74961 1.5636,-2.34703 0.91069,-1.0073 0.99928,-1.20311 1.21936,-2.69525 0.50439,-3.41982 2.57617,-6.41956 5.47438,-7.92637 2.19973,-1.14367 3.91145,-1.47631 7.17628,-1.39461 1.49042,0.0373 3.792,-0.0632 5.11464,-0.22337 4.0831,-0.49441 7.9872,0.005 10.05339,1.28583 1.52606,0.94606 3.11337,2.95649 4.17106,5.28288 0.68915,1.51581 1.13537,3.01794 1.91044,6.43124 1.33287,5.86979 2.34677,8.21693 4.81197,11.13959 0.55466,0.65758 1.00848,1.25522 1.00848,1.32809 0,0.0728 -0.20506,0.13247 -0.45568,0.13247 -0.77811,0 -2.76753,-1.44623 -7.68585,-5.58733 -9.3167,-7.84441 -14.69602,-11.10881 -19.92672,-12.09236 -2.7855,-0.52376 -5.47023,0.25362 -8.95405,2.59273 -3.01091,2.02158 -4.63947,4.42372 -5.13828,7.579 -0.21029,1.33024 -0.19889,1.4831 0.1252,1.67962 0.84279,0.51105 1.73591,1.55535 1.73591,2.02976 0,0.43517 -0.80884,1.42076 -1.36203,1.65967 -0.0978,0.0422 -0.0935,0.97839 0.01,2.13891 0.19936,2.242 0.073,8.33877 -0.25898,12.49152 -0.1146,1.43381 -0.56278,5.833 -0.99595,9.77597 -0.43317,3.94298 -0.88887,8.48881 -1.01266,10.10184 -0.1238,1.61304 -0.27451,2.98167 -0.33492,3.04142 -0.22452,0.22202 0.1775,-6.50367 0.66045,-11.04924 1.55135,-14.60142 1.7941,-18.00059 1.60792,-22.51494 -0.14109,-3.42081 -0.16069,-3.63471 -0.50605,-5.52057 -0.28667,-1.56535 -0.11692,-1.6871 0.20165,-0.14463 0.13765,0.66644 0.30357,1.21122 0.36873,1.21062 0.0652,-6.5e-4 0.37221,-0.2211 0.68234,-0.49002 0.71388,-0.61901 0.58381,-1.04299 -0.588,-1.91656 -0.77305,-0.57631 -0.87809,-0.75187 -0.87809,-1.46752 0,-1.16119 0.52521,-3.18863 1.15861,-4.47244 1.53639,-3.11411 6.58033,-6.60328 10.53531,-7.28787 1.22115,-0.21138 2.33575,-0.0947 5.14765,0.53888 0.30733,0.0692 0.22976,-0.008 -0.2005,-0.19948 -1.0818,-0.48162 -0.36502,-0.40099 1.11486,0.1254 1.28685,0.45773 1.34149,0.45999 1.95903,0.0809 l 0.63527,-0.38999 -0.70173,0.68945 c -0.5225,0.51335 -0.5963,0.65878 -0.28896,0.5694 0.25795,-0.075 1.09796,0.24129 2.2394,0.84325 1.13926,0.60082 2.00245,0.92605 2.2939,0.86431 0.44841,-0.095 0.44704,-0.0889 -0.034,0.15064 l -0.50124,0.24963 0.52379,0.16421 c 1.01109,0.31696 4.23277,2.82158 10.90442,8.4774 2.20544,1.86964 4.59635,3.8173 5.31312,4.32813 l 1.30321,0.92879 -0.90222,-0.90303 c -0.571,-0.5715 -0.72316,-0.80887 -0.41446,-0.64655 0.44099,0.23187 0.41749,0.15274 -0.24507,-0.82525 -1.41972,-2.09561 -2.29008,-4.47469 -3.3608,-9.18654 -1.1939,-5.2539 -2.13716,-7.61903 -3.85785,-9.67318 -2.07259,-2.47424 -4.12432,-3.19765 -9.06364,-3.19572 -1.85756,6.5e-4 -3.64568,0.12976 -4.67674,0.33748 -1.30164,0.26223 -1.94195,0.28726 -2.90717,0.11363 -3.57235,-0.64261 -8.05239,0.89786 -10.21016,3.51079 -1.10003,1.33207 -2.15056,3.77506 -2.30057,5.34993 l -0.12075,1.26761 0.48394,-0.37171 c 0.26617,-0.20444 1.14275,-0.82684 1.94796,-1.38311 1.14384,-0.7902 1.56676,-1.23107 1.93377,-2.01584 0.25836,-0.55245 0.6675,-1.24792 0.90919,-1.54549 l 0.43943,-0.54104 -0.42575,0.69649 c -0.23417,0.38307 -0.60336,1.13153 -0.82044,1.66326 -0.3425,0.83897 -0.6571,1.14151 -2.37984,2.28861 -2.54523,1.69476 -4.01902,3.32067 -4.98712,5.5019 -0.40956,0.92276 -0.81059,1.68039 -0.8912,1.68364 -0.0806,0.003 -0.19209,-0.21407 -0.24775,-0.4829 -0.0557,-0.26884 -0.67955,-3.07944 -1.38642,-6.24577 -1.47829,-6.62177 -2.0024,-9.36216 -2.4275,-12.69238 l -0.30294,-2.37331 0.52319,-1.6457 c 0.58589,-1.8429 0.97888,-2.74666 1.28289,-2.95025 0.11272,-0.0755 0.69321,-0.0188 1.28997,0.12586 1.3087,0.31734 3.85387,0.0252 5.61146,-0.6442 4.27458,-1.6279 11.28123,-9.4936 13.56733,-15.23076 0.82305,-2.06552 2.61313,-8.09486 3.19268,-10.75357 0.44717,-2.05143 0.79843,-5.317538 0.6131,-5.700678 -0.0905,-0.18714 -0.68006,0.13461 -1.92791,1.0522 -2.34589,1.725018 -3.65396,2.425638 -8.03389,4.303058 -3.79258,1.62566 -6.10492,2.93567 -8.80073,4.98585 -1.67246,1.27192 -4.32693,3.89498 -5.32916,5.26612 l -0.58283,0.79735 0.48793,0.94812 c 0.75077,1.45889 1.71743,4.80672 1.69436,5.86815 l -0.0205,0.94555 -0.2451,-1.19484 c -0.1348,-0.65716 -0.36059,-1.58588 -0.50175,-2.06381 -0.32686,-1.10668 -1.64464,-4.49304 -1.85985,-4.77937 -0.0898,-0.11948 -0.60174,-0.95044 -1.13762,-1.84657 -0.53589,-0.89613 -1.49223,-2.26477 -2.12521,-3.04142 -2.04109,-2.50436 -4.35451,-5.66748 -5.0173,-6.8601 l -0.64575,-1.16194 -0.35049,2.32738 c -0.19277,1.28006 -0.42965,2.86506 -0.5264,3.52223 -0.0968,0.65716 -0.18218,2.72624 -0.18983,4.59797 -0.0149,3.6501 0.23492,5.31528 1.34735,8.97977 1.5904,5.23897 3.69546,8.39799 6.22942,9.34839 l 0.75298,0.28242 0.12397,-0.68777 c 0.12526,-0.69488 0.19801,1.16426 0.20685,5.28643 0.003,1.29448 0.0576,1.82087 0.14717,1.41208 0.11024,-0.5033 0.17625,-0.23119 0.28985,1.19484 0.0809,1.01562 0.28887,2.82061 0.46214,4.0111 0.17327,1.19049 0.26485,2.55913 0.20352,3.04142 -0.0613,0.48229 -0.012,1.53845 0.10954,2.34703 0.12159,0.80858 0.1605,1.53578 0.0865,1.61599 -0.074,0.0802 -0.56118,-0.09 -1.08255,-0.3782 -0.52137,-0.28823 -1.05719,-0.51369 -1.19071,-0.50102 -0.13352,0.0127 -0.22374,-0.0877 -0.20049,-0.22297 0.0232,-0.13529 -0.0705,-0.22155 -0.20836,-0.19168 -0.13784,0.0299 -0.25062,-0.0656 -0.25062,-0.21214 0,-0.14654 -0.65411,-0.98241 -1.45359,-1.85749 -0.79947,-0.87508 -1.2957,-1.52679 -1.10272,-1.44826 0.3042,0.12379 0.35067,0.002 0.34935,-0.91237 -0.006,-4.16202 -1.85193,-8.98525 -4.35112,-11.36891 -1.91368,-1.8252 -5.37507,-3.81449 -8.52662,-4.90033 -3.967,-1.3668 -7.19687,-1.54683 -11.227064,-0.62581 -2.99337,0.68408 -4.869363,1.44722 -7.367283,2.99694 -2.80501,1.74026 -4.70266,3.38289 -8.770409,7.59181 -2.009528,2.07927 -4.242539,4.19619 -4.962248,4.70427 -0.719709,0.50808 -1.308562,0.94744 -1.308562,0.97636 0,0.0289 1.466119,-0.33067 3.258042,-0.79909 10.876867,-2.84327 16.91892,-3.86665 22.828824,-3.86665 h 2.84678 l -0.58255,-0.56863 c -0.60832,-0.59378 -0.25769,-0.4925 0.39077,0.11288 0.20451,0.19092 0.74585,0.35751 1.20297,0.37019 1.05423,0.0292 3.31917,0.29741 3.81877,0.45213 0.2997,0.0928 0.3523,0.0365 0.24602,-0.2636 -0.11593,-0.32735 -0.09,-0.34106 0.18212,-0.0964 0.1745,0.15692 1.32611,0.56084 2.55913,0.89759 1.23302,0.33675 2.49786,0.81735 2.81075,1.068 0.66792,0.53508 0.86148,0.43833 0.54015,-0.26996 l -0.2302,-0.5074 0.37295,0.49994 c 0.20512,0.27497 0.9104,0.82241 1.56729,1.21653 0.65689,0.39412 1.19435,0.82088 1.19435,0.94835 0,0.12747 0.0821,0.31323 0.18251,0.4128 0.10776,0.10688 0.11686,0.0583 0.0222,-0.1187 -0.10964,-0.20502 -0.0723,-0.26795 0.11822,-0.19914 0.15319,0.0553 0.27853,0.21714 0.27853,0.35958 0,0.14245 0.406,0.60379 0.90223,1.0252 0.49622,0.42142 1.89467,1.86335 3.10767,3.20429 1.56138,1.72608 2.53641,2.61537 3.33878,3.04522 l 1.13333,0.60715 0.51111,2.9719 c 1.1259,6.54672 1.11974,6.32577 0.1722,6.17508 -0.8832,-0.14046 -3.32854,0.32316 -4.99832,0.94764 -1.97538,0.73876 -5.09068,2.32077 -6.20297,3.14997 l -0.90587,0.67532 -1.23576,-0.38909 c -0.75507,-0.23774 -1.93767,-0.39471 -3.04022,-0.40353 -1.59765,-0.0128 -1.88208,0.0455 -2.48179,0.509 -0.40018,0.30926 -0.89242,1.0204 -1.20297,1.73795 -0.48601,1.12295 -0.52351,1.41921 -0.49749,3.93005 0.0282,2.72075 0.4215,5.44389 1.00408,6.95181 l 0.29377,0.76035 0.59991,-1.61611 c 1.25307,-3.37563 3.49301,-6.18134 6.10841,-7.65129 3.88983,-2.18621 7.9811,-2.73059 10.2897,-1.36913 0.58634,0.34579 1.3298,0.97415 1.65214,1.39636 0.8578,1.12359 1.53949,3.68849 1.68727,6.3485 0.13656,2.45812 -0.0539,3.85975 -2.09061,15.38319 -0.53851,3.04685 -1.13436,6.71284 -1.32412,8.14665 -0.38113,2.87982 -0.77162,4.31731 -0.59013,2.17244 z m 1.42642,-55.66874 c -0.0504,-0.2091 -0.0917,-0.038 -0.0917,0.38017 0,0.4182 0.0413,0.58928 0.0917,0.38018 0.0504,-0.2091 0.0504,-0.55126 0,-0.76035 z m -0.2005,-1.52071 c -0.0504,-0.2091 -0.0917,-0.038 -0.0917,0.38018 0,0.41819 0.0413,0.58927 0.0917,0.38017 0.0504,-0.20909 0.0504,-0.55125 0,-0.76035 z m -0.19976,-1.51657 c -0.0508,-0.21137 -0.0958,-0.091 -0.0999,0.26742 -0.004,0.35845 0.0375,0.53139 0.0924,0.38431 0.0549,-0.14708 0.0583,-0.44036 0.007,-0.65173 z m -8.15874,0.4923 c 0,-0.0555 -0.203,-0.20756 -0.45111,-0.33784 -0.4332,-0.22747 -0.43565,-0.22346 -0.0619,0.10097 0.40906,0.35511 0.51304,0.40311 0.51304,0.23687 z m -1.50371,-0.98523 c -0.0681,-0.11949 -0.23137,-0.21575 -0.3627,-0.21392 -0.14347,0.002 -0.11874,0.0874 0.062,0.21392 0.38517,0.26971 0.45458,0.26971 0.30074,0 z m 9.46482,-1.57249 c -0.048,-0.27023 -0.089,-0.10029 -0.0913,0.37764 -0.002,0.47794 0.037,0.69904 0.0872,0.49134 0.0502,-0.20771 0.052,-0.59875 0.004,-0.86898 z m 3.46403,31.60645 c -0.003,-0.3249 -0.0313,-0.3328 -0.19742,-0.0543 -0.17276,0.28965 -0.19492,0.28965 -0.19939,0 -0.01,-0.62552 -0.97038,-2.56586 -1.70916,-3.45191 -0.4095,-0.49113 -0.66187,-0.89297 -0.56082,-0.89297 0.10105,0 0.29199,0.11731 0.42432,0.26069 0.18648,0.20207 0.24059,0.20221 0.24059,6.5e-4 0,-0.43875 1.42669,-1.99929 1.82779,-1.99929 0.3531,0 0.37766,0.21193 0.37766,3.25866 0,1.79226 -0.0451,3.25865 -0.10025,3.25865 -0.0551,0 -0.10163,-0.17107 -0.10332,-0.38017 z m -0.30936,-5.45879 c -0.16416,-0.1739 -1.32028,1.31178 -1.24614,1.60136 0.0308,0.12023 0.32638,0.72542 0.6569,1.34487 l 0.60093,1.12628 0.058,-1.96863 c 0.0319,-1.08275 6e-4,-2.02949 -0.0697,-2.10388 z m -3.99821,0.50865 c -0.48266,-0.23948 -0.51994,-0.30036 -0.18869,-0.30823 0.22704,-0.005 0.58793,0.13374 0.80198,0.30916 0.48282,0.39569 0.18522,0.39524 -0.61329,-8.7e-4 z m -6.47745,-0.90523 c -1.80056,-0.77817 -1.4248,-0.82943 0.57764,-0.0788 0.92918,0.34831 1.46386,0.6315 1.18818,0.62931 -0.27568,-0.002 -1.0703,-0.24992 -1.76582,-0.55051 z m 11.44418,-0.49901 c 0,-0.53768 0.0391,-0.75764 0.0869,-0.4888 0.0478,0.26884 0.0478,0.70875 0,0.97759 -0.0478,0.26884 -0.0869,0.0489 -0.0869,-0.48879 z m -0.34944,-3.31407 c -0.0748,-0.98514 -0.27293,-2.69263 -0.44041,-3.79442 -0.16747,-1.10179 -0.26816,-2.12135 -0.22376,-2.26569 0.0444,-0.14434 0.2344,0.85489 0.4222,2.2205 0.54014,3.92753 0.68228,5.42693 0.52448,5.5326 -0.0806,0.054 -0.20777,-0.70784 -0.28251,-1.69299 z m 35.02355,-3.94361 c -0.68508,-0.84544 -1.84755,-2.63592 -1.84755,-2.84566 0,-0.17934 0.7024,0.74465 1.77645,2.33687 0.94423,1.39975 0.97572,1.62517 0.0711,0.50879 z m -35.91585,-2.86227 c 0.01,-0.25308 0.0571,-0.30455 0.12113,-0.13125 0.0579,0.15682 0.0508,0.3442 -0.0158,0.41639 -0.0666,0.0722 -0.11401,-0.0561 -0.10531,-0.28514 z m -0.2005,-1.08622 c 0.01,-0.25307 0.0571,-0.30455 0.12113,-0.13125 0.0579,0.15682 0.0508,0.3442 -0.0158,0.41639 -0.0666,0.0722 -0.11401,-0.0561 -0.1053,-0.28514 z m 32.58392,-1.22665 c -0.60321,-0.86384 -1.0564,-1.61434 -1.00708,-1.66778 0.0984,-0.10664 0.28001,0.13467 1.49693,1.98925 1.16724,1.77888 0.81571,1.54818 -0.48985,-0.32147 z m -2.98108,-4.13203 c -1.38573,-1.81643 -2.94425,-3.38438 -4.03801,-4.06244 -0.6115,-0.37909 -1.1748,-0.79968 -1.25179,-0.93466 -0.16661,-0.29211 1.06071,0.48958 2.37337,1.51161 0.94737,0.73763 2.59372,2.57274 3.37593,3.76303 0.62461,0.95046 0.35147,0.78548 -0.4595,-0.27754 z m -19.05972,0.0562 c 0.22051,-0.21808 1.98614,-0.80009 2.87421,-0.94743 0.94565,-0.15689 0.30136,0.12053 -1.571,0.67644 -0.80891,0.24017 -1.39536,0.36212 -1.30321,0.27099 z m 4.13112,-1.02137 c 0.19507,-0.0551 0.46574,-0.0515 0.60148,0.008 0.13574,0.0595 -0.0239,0.10457 -0.35468,0.10015 -0.33081,-0.004 -0.44188,-0.0531 -0.2468,-0.1082 z m 1.24928,-0.004 c 0.22054,-0.0573 0.67165,-0.36874 1.00247,-0.69218 1.11051,-1.08573 1.41297,-1.19839 0.45841,-0.17073 -0.61253,0.65943 -1.10636,1.00855 -1.40347,0.99222 -0.40828,-0.0224 -0.41456,-0.0366 -0.0574,-0.12931 z m -24.72036,-3.84911 c -0.81873,-0.62725 -0.96024,-0.77737 -0.72579,-0.76991 0.10109,0.003 0.49957,0.29386 0.88552,0.64588 0.83877,0.76504 0.7584,0.82745 -0.15973,0.12403 z m 1.00858,-0.99626 c -2.21439,-4.169 -6.85028,-7.57314 -11.65962,-8.56167 -2.38728,-0.49069 -6.16845,-0.64438 -9.081104,-0.3691 -3.53842,0.33441 -5.15568,0.9145 -13.089543,4.69497 -3.89265,1.85484 -5.368756,2.51323 -5.446295,2.42921 -0.03837,-0.0416 0.630016,-0.42758 1.485295,-0.8578 0.85529,-0.43022 2.45729,-1.23557 3.56001,-1.78965 5.73293,-2.88064 9.307093,-4.32555 11.554223,-4.67097 1.87319,-0.28794 8.402784,-0.28997 10.051524,-0.003 4.28933,0.74625 7.58564,2.54125 10.3732,5.64871 1.34824,1.50297 2.9923,4.00598 2.78138,4.23452 -0.0447,0.0484 -0.28277,-0.29137 -0.52907,-0.75509 z m 5.06499,-11.11904 c -0.0774,-0.89543 -0.0969,-1.81422 -0.0431,-2.04175 0.0537,-0.22753 0.10811,0.002 0.1209,0.50959 0.022,0.87463 0.25187,1.18402 0.5245,0.70605 0.14297,-0.25066 1.10744,-0.29857 1.09326,-0.0543 -0.0211,0.36308 -1.17552,2.52853 -1.18712,2.22674 -0.0105,-0.27342 -0.0411,-0.27697 -0.19006,-0.0221 -0.11733,0.20079 -0.22527,-0.24823 -0.31833,-1.32427 z m 0.9096,-0.0658 c 0.27207,-0.4019 0.26782,-0.41213 -0.0567,-0.13633 -0.19297,0.16398 -0.35086,0.40024 -0.35086,0.525 0,0.12477 0.0255,0.18612 0.0567,0.13634 0.0312,-0.0498 0.1891,-0.28604 0.35087,-0.52501 z m 3.60733,-5.70265 c 0.84002,-1.62734 3.12562,-5.44293 3.67533,-6.13559 l 0.42978,-0.54155 -0.4331,0.39463 c -0.50953,0.46427 -3.60376,5.3158 -4.1512,6.50879 -0.20789,0.45303 -0.42213,0.77585 -0.4761,0.71738 -0.31137,-0.33738 2.82641,-5.72023 4.89628,-8.39956 0.7446,-0.96385 2.8906,-3.2341 4.76887,-5.04501 1.87828,-1.81091 4.7542,-4.71256 6.39094,-6.44811 1.63674,-1.73555 3.03519,-3.15704 3.10767,-3.15887 0.24973,-0.006 0.63302,-0.34867 0.63302,-0.56543 0,-0.11948 -0.11278,-0.14579 -0.25062,-0.0585 -0.13784,0.0873 -0.082,-0.0497 0.12412,-0.30443 0.20611,-0.25476 0.43803,-0.44264 0.5154,-0.41752 0.0774,0.0251 0.39177,-0.24759 0.69869,-0.60604 0.455,-0.531408 0.43563,-0.471248 -0.10496,0.32587 -1.12582,1.66007 -2.61844,3.48021 -2.77049,3.37839 -0.0796,-0.0533 -1.13088,0.99776 -2.33621,2.33568 l -2.19152,2.43257 2.25557,-2.38598 c 1.24056,-1.31228 2.25556,-2.28623 2.25556,-2.16431 0,0.21651 -4.30921,4.86876 -9.54725,10.30725 -2.81493,2.92266 -4.42762,5.06357 -6.58668,8.74407 -0.75348,1.28445 -1.41,2.33537 -1.45893,2.33537 -0.0489,0 0.20119,-0.56212 0.55583,-1.24915 z m 4.71921,-7.49491 0.58887,-0.70605 -0.65161,0.63807 c -0.60739,0.59476 -0.74376,0.77402 -0.58887,0.77402 0.0345,0 0.32773,-0.31772 0.65161,-0.70604 z m 1.39085,-1.68364 c 0.43071,-0.47794 0.738,-0.86898 0.68287,-0.86898 -0.0551,0 -0.45265,0.39104 -0.88336,0.86898 -0.43072,0.47793 -0.73801,0.86897 -0.68287,0.86897 0.0551,0 0.45265,-0.39104 0.88336,-0.86897 z m 2.20544,-2.17244 c 0.43072,-0.47794 0.73801,-0.86898 0.68287,-0.86898 -0.0551,0 -0.45265,0.39104 -0.88336,0.86898 -0.43071,0.47793 -0.738,0.86897 -0.68287,0.86897 0.0551,0 0.45265,-0.39104 0.88336,-0.86897 z m 2.60644,-2.60693 c 0.54307,-0.59742 0.94229,-1.08622 0.88715,-1.08622 -0.0551,0 -0.54458,0.4888 -1.08765,1.08622 -0.54307,0.59742 -0.94229,1.08622 -0.88715,1.08622 0.0551,0 0.54458,-0.4888 1.08765,-1.08622 z m 6.82944,-7.4406 0.58887,-0.70604 -0.65161,0.63806 c -0.60739,0.59477 -0.74376,0.77402 -0.58887,0.77402 0.0345,0 0.32773,-0.31772 0.65161,-0.70604 z m -18.82486,20.69248 c 0.0662,-0.65717 0.15318,-1.23558 0.19338,-1.28536 0.15532,-0.19237 0.0353,1.63447 -0.13439,2.04571 -0.11709,0.28375 -0.13755,0.0199 -0.059,-0.76035 z m -5.32957,-3.49712 c -0.1358,-0.49114 -0.30092,-1.04549 -0.36694,-1.23188 -0.0726,-0.205 -0.0371,-0.28335 0.0899,-0.19832 0.21641,0.14492 0.73864,2.09059 0.60112,2.23959 -0.0424,0.046 -0.18826,-0.31824 -0.32407,-0.80939 z m -0.49315,-1.88855 c -0.49945,-0.87565 -4.37442,-11.37349 -4.24853,-11.5099 0.0957,-0.10374 0.37234,0.57889 1.10113,2.71752 0.25394,0.74519 0.54035,1.30223 0.63646,1.23787 0.0961,-0.0644 0.11534,0.0507 0.0427,0.25576 -0.0843,0.23806 -0.054,0.32055 0.0838,0.22823 0.13887,-0.093 0.18058,0.0299 0.11693,0.34454 -0.0817,0.40412 -0.0588,0.43248 0.13208,0.16323 0.1897,-0.26758 0.2088,-0.24007 0.10681,0.15378 -0.0713,0.27526 0.0117,0.73812 0.19468,1.08622 0.30659,0.58316 0.31424,0.58561 0.1982,0.0635 -0.0929,-0.41797 -0.0725,-0.46803 0.0883,-0.21725 0.11498,0.17923 0.1605,0.49498 0.10116,0.70166 -0.0593,0.20669 -0.008,0.54885 0.11439,0.76036 0.18871,0.32645 0.20372,0.3025 0.0993,-0.15855 -0.0945,-0.41733 -0.0745,-0.46764 0.0861,-0.21725 0.11498,0.17923 0.15634,0.50919 0.0919,0.73325 -0.0757,0.26333 -0.0395,0.35536 0.10253,0.26027 0.14219,-0.0952 0.17311,-0.0156 0.0877,0.22568 -0.089,0.25122 -0.0563,0.32206 0.10024,0.21724 0.14972,-0.10026 0.1915,-0.0404 0.11754,0.16841 -0.0631,0.17818 -0.0126,0.50098 0.11212,0.71733 0.19618,0.3402 0.21023,0.31996 0.10389,-0.14974 -0.0945,-0.41732 -0.0745,-0.46764 0.0861,-0.21724 0.11498,0.17922 0.15633,0.50918 0.0919,0.73325 -0.0757,0.26332 -0.0395,0.35536 0.10253,0.26027 0.13176,-0.0882 0.1772,-0.0272 0.11354,0.15257 -0.0584,0.16483 -0.0145,0.56094 0.0976,0.88026 0.19159,0.54604 0.15532,0.78835 -0.0612,0.40876 z"
       id="path873" />
  </g>
</svg>
